<svg xmlns="http://www.w3.org/2000/svg" viewBox="0 0 585.12 118.78"><title>sketchfab-logo</title><path d="M173,36.41q-11.19,0-11.19,7.39a5.6,5.6,0,0,0,2.77,5q2.77,1.75,13,5t14.32,7.44Q196,65.47,196,74.1q0,11-6.67,16.63t-17.46,5.65a97.15,97.15,0,0,1-19.61-2.46l-3.7-.72,1.44-11A170.91,170.91,0,0,0,171,84.06q10.88,0,10.88-9a6,6,0,0,0-2.52-5.13q-2.52-1.85-10-4-11.91-3.39-16.79-8.06t-4.88-13q0-10.47,6.37-15.61t17.45-5.13a116.15,116.15,0,0,1,19.3,2.05l3.7.72-1.13,11.19Q178.91,36.41,173,36.41Z" fill="#555"/><path d="M219.88,95.14H206.12V23.27h13.76V64.13l5.24-.92L235.28,43.8h15.4L237.33,68.14l14.07,27H235.9l-10.37-20-5.65.92Z" fill="#555"/><path d="M271.89,82.16q2.41,2.1,6.93,2.1,9.55,0,17-.62l2.87-.31.21,10.16a91.17,91.17,0,0,1-21.36,2.88q-11.6,0-16.84-6.16t-5.24-20q0-27.62,22.69-27.62,22.39,0,22.38,23.21l-1,9.55H269.37Q269.47,80.05,271.89,82.16ZM287,64.85q0-6.16-2-8.57t-6.83-2.41q-4.88,0-6.88,2.51t-2.1,8.47Z" fill="#555"/><path d="M338.89,55.51H326.26v21a42.38,42.38,0,0,0,.15,4.37,3.54,3.54,0,0,0,1.13,2.21,4.27,4.27,0,0,0,3,.93l7.8-.21.62,11a52.18,52.18,0,0,1-10.47,1.54q-9.24,0-12.63-4.16T312.5,76.87V55.51h-6.06V43.8h6.06V29.53h13.76V43.8h12.63Z" fill="#555"/><path d="M367,42.57a73.47,73.47,0,0,1,13.65,1.64l2.77.62L383,55.72q-8.11-.82-12-.82-7.09,0-9.4,3t-2.31,11.45q0,8.42,2.31,11.55t9.5,3.13L383,83.24l.41,11a94.55,94.55,0,0,1-16.74,2.16q-11.4,0-16.38-6.42t-5-20.59q0-14.17,5.13-20.48T367,42.57Z" fill="#555"/><path d="M407.38,95.14H393.62V23.27h13.76v23q7.09-3.7,12.73-3.7,10.27,0,14.17,6.06t3.9,18.69V95.14H424.42V67.63q0-6.47-1.54-9.6t-6.16-3.13a27.15,27.15,0,0,0-8,1.23l-1.34.41Z" fill="#555"/><path d="M466.62,55.51V95.14H452.86V55.51h-5.54V43.8h5.54V41.55q0-11.09,3.29-15.3T467.85,22a57.93,57.93,0,0,1,9.55,1l2.16.31-.21,11.19q-4.52-.2-7.6-.2T467.65,36q-1,1.65-1,5.65V43.8H479V55.51Z" fill="#555"/><path d="M526.38,59.82V81.18a8.19,8.19,0,0,0,.82,3.44A3.81,3.81,0,0,0,529.77,86l-.41,10.37a39,39,0,0,1-8.37-.72,18.84,18.84,0,0,1-6.31-2.88,34.2,34.2,0,0,1-15.1,3.59q-15.91,0-15.91-16.84,0-8.21,4.41-11.65t13.55-4.05l11-.82V59.82q0-3.18-1.44-4.36a7.27,7.27,0,0,0-4.62-1.18l-19.3.82-.41-9.55a80,80,0,0,1,20.89-3q9.91,0,14.27,4.11T526.38,59.82Zm-23.1,13.55q-5.75.52-5.75,6.16t5,5.65A33.19,33.19,0,0,0,511.08,84l1.54-.41v-11Z" fill="#555"/><path d="M564.37,42.57q10.78,0,15.76,5.9t5,21.1q0,15.2-5.75,21t-19.82,5.8q-4.42,0-16.12-1l-3.9-.41V23.27h13.76V45.34Q559.85,42.57,564.37,42.57Zm-4.83,41.48q6.88,0,9.24-3.34t2.36-12q0-13.86-8.62-13.86a29.05,29.05,0,0,0-7.8,1l-1.44.31V83.65Q558,84.05,559.55,84.06Z" fill="#555"/><path d="M59.39,0a59.39,59.39,0,1,0,59.39,59.39A59.39,59.39,0,0,0,59.39,0Z" fill="#1caad9"/><polygon points="89.56 78.8 59.39 97.28 29.21 78.8 29.21 41.83 59.39 23.34 89.56 41.83 89.56 78.8" fill="#fff"/><polygon points="62.89 105.45 55.89 105.45 55.89 65.25 20.5 43.58 24.16 37.61 59.39 59.19 94.62 37.61 98.27 43.58 62.89 65.25 62.89 105.45" fill="#1caad9"/></svg>